<svg version="1.1" id="Layer_1" xmlns="http://www.w3.org/2000/svg" xmlns:xlink="http://www.w3.org/1999/xlink" x="0px" y="0px"
	 width="100%" viewBox="0 0 611 611" enable-background="new 0 0 611 611" xml:space="preserve">
<path fill="#FEFFFE" opacity="1.000000" stroke="none" 
	d="
M5.999989,612.000000 
	C4.333623,612.000000 2.667246,612.000000 1.000652,612.000000 
	C1.000435,408.369049 1.000435,204.738098 1.000435,1.053569 
	C204.595535,1.053569 408.191071,1.053569 611.893311,1.053569 
	C611.893311,204.560043 611.893311,408.120178 611.893311,612.000000 
	C413.974274,612.000000 215.948395,612.000000 17.504803,611.656982 
	C22.724300,606.146912 28.389280,601.009644 33.983974,595.796997 
	C35.994850,593.923462 38.104683,591.620361 35.511150,589.008484 
	C33.154068,586.634766 31.068630,588.591003 29.107645,590.352295 
	C21.803196,596.912720 14.411123,603.375549 7.096724,609.925049 
	C6.550114,610.414551 6.357281,611.299072 5.999989,612.000000 
M560.023193,41.275928 
	C560.068481,38.451138 559.493774,37.084465 555.945862,37.924198 
	C535.865723,42.676796 515.801697,47.556793 495.580475,51.642254 
	C450.808197,60.687958 405.616608,67.069534 359.964996,68.941711 
	C328.691742,70.224236 297.340820,70.458359 266.041168,70.009247 
	C236.251007,69.581810 206.476227,67.784798 176.706818,66.339890 
	C162.412689,65.646111 148.146545,64.375641 133.047272,63.175030 
	C129.745529,62.782673 126.284393,62.886963 123.176788,61.889641 
	C117.535027,60.079037 115.575058,62.637775 114.181122,67.578621 
	C103.614532,105.031944 92.222595,142.266083 82.377472,179.905823 
	C69.737389,228.231262 60.255722,277.207489 56.152054,327.112335 
	C53.191570,363.114868 49.680904,399.073059 46.848434,435.085052 
	C43.206837,481.384399 39.970596,527.715820 36.647213,574.039673 
	C36.320255,578.597046 36.603466,583.198120 36.603466,588.229126 
	C39.024151,588.061951 40.473373,587.961914 42.801506,588.041626 
	C44.949291,587.830322 47.159489,587.874756 49.235210,587.368164 
	C70.229118,582.244812 91.360405,577.595032 112.144142,571.719360 
	C149.274277,561.222656 186.183289,549.944946 223.199356,539.043396 
	C254.188705,529.916809 285.515594,522.296143 317.640411,518.352539 
	C342.885559,515.253418 368.105804,511.904022 393.399139,509.259125 
	C414.895599,507.011230 436.460052,505.284241 458.031891,503.919159 
	C484.230927,502.261230 510.440216,499.741791 536.741882,502.771118 
	C539.445923,503.082520 542.372192,501.465424 545.805847,500.578003 
	C549.540100,495.359558 554.770691,490.643433 556.723389,484.826874 
	C562.206726,468.493286 567.419128,451.922241 570.793030,435.055664 
	C579.431335,391.872742 582.208435,347.998077 584.653564,304.092194 
	C587.177979,258.762177 582.092346,213.968628 576.521240,169.174393 
	C572.455078,136.480530 568.235535,103.805588 564.019104,71.130630 
	C562.765869,61.418785 561.291443,51.735470 560.023193,41.275928 
z"/>
<path fill="#D7824A" opacity="1.000000" stroke="none" 
	d="
M6.458058,612.000000 
	C6.357281,611.299072 6.550114,610.414551 7.096724,609.925049 
	C14.411123,603.375549 21.803196,596.912720 29.107645,590.352295 
	C31.068630,588.591003 33.154068,586.634766 35.511150,589.008484 
	C38.104683,591.620361 35.994850,593.923462 33.983974,595.796997 
	C28.389280,601.009644 22.724300,606.146912 17.043547,611.656982 
	C13.638713,612.000000 10.277426,612.000000 6.458058,612.000000 
z"/>
<path fill="#DD6C2B" opacity="1.000000" stroke="none" 
	d="
M41.922588,587.861816 
	C40.473373,587.961914 39.024151,588.061951 36.603466,588.229126 
	C36.603466,583.198120 36.320255,578.597046 36.647213,574.039673 
	C39.970596,527.715820 43.206837,481.384399 46.848434,435.085052 
	C49.680904,399.073059 53.191570,363.114868 56.152054,327.112335 
	C60.255722,277.207489 69.737389,228.231262 82.377472,179.905823 
	C92.222595,142.266083 103.614532,105.031944 114.181122,67.578621 
	C115.575058,62.637775 117.535027,60.079037 123.176788,61.889641 
	C126.284393,62.886963 129.745529,62.782673 133.590393,63.565422 
	C136.117279,65.953705 138.005402,68.058502 140.100327,69.932068 
	C153.369400,81.799072 166.694443,93.603439 179.981796,105.450050 
	C206.672760,129.246948 233.351425,153.057693 260.017242,177.162582 
	C250.238922,191.814453 245.304764,207.851898 244.154526,224.998718 
	C243.115158,240.492798 245.188385,255.828049 248.552063,270.915253 
	C254.335342,296.855225 264.107666,321.342468 276.383148,344.874054 
	C278.217621,348.390686 280.794250,349.972260 284.732697,349.990540 
	C288.164948,350.006439 291.594971,350.494385 294.564148,350.858032 
	C289.441315,350.897858 284.668854,351.447937 280.158142,350.602051 
	C277.101959,350.028931 275.530182,350.917206 273.704163,352.780609 
	C262.886749,363.819550 252.011765,374.802094 241.188919,385.835724 
	C217.316452,410.172974 193.501541,434.566803 169.592224,458.867767 
	C144.251358,484.623657 118.907516,510.377594 93.409782,535.977783 
	C79.433197,550.010559 65.093430,563.681030 51.016060,577.614502 
	C47.777126,580.820312 44.942993,584.435181 41.922588,587.861816 
z"/>
<path fill="#C8BE3C" opacity="1.000000" stroke="none" 
	d="
M42.362045,587.951721 
	C44.942993,584.435181 47.777126,580.820312 51.016060,577.614502 
	C65.093430,563.681030 79.433197,550.010559 93.409782,535.977783 
	C118.907516,510.377594 144.251358,484.623657 169.592224,458.867767 
	C193.501541,434.566803 217.316452,410.172974 241.188919,385.835724 
	C252.011765,374.802094 262.886749,363.819550 273.704163,352.780609 
	C275.530182,350.917206 277.101959,350.028931 280.158142,350.602051 
	C284.668854,351.447937 289.441315,350.897858 295.031311,350.900940 
	C307.629456,350.849182 319.298645,350.838837 331.349121,350.901764 
	C333.187897,350.738647 334.645386,350.502228 336.404419,350.259674 
	C337.108063,350.242188 337.510071,350.230835 338.245239,350.462524 
	C343.046906,350.456116 347.515411,350.206635 352.312195,349.947723 
	C353.076660,349.898651 353.512787,349.859009 354.241760,349.890991 
	C355.059784,349.732605 355.585022,349.502625 356.569885,349.245728 
	C367.469025,348.494568 377.978973,348.302948 388.333191,346.933716 
	C409.052246,344.193817 429.726471,341.049133 450.336060,337.578033 
	C459.130341,336.096863 467.716187,333.378296 476.593964,331.510040 
	C483.527771,340.433868 491.644806,348.339935 496.684052,357.872955 
	C504.650574,372.943726 510.618866,389.077515 517.316406,404.810944 
	C530.451355,435.666748 540.158020,467.529114 545.195312,500.743225 
	C542.372192,501.465424 539.445923,503.082520 536.741882,502.771118 
	C510.440216,499.741791 484.230927,502.261230 458.031891,503.919159 
	C436.460052,505.284241 414.895599,507.011230 393.399139,509.259125 
	C368.105804,511.904022 342.885559,515.253418 317.640411,518.352539 
	C285.515594,522.296143 254.188705,529.916809 223.199356,539.043396 
	C186.183289,549.944946 149.274277,561.222656 112.144142,571.719360 
	C91.360405,577.595032 70.229118,582.244812 49.235210,587.368164 
	C47.159489,587.874756 44.949291,587.830322 42.362045,587.951721 
z"/>
<path fill="#026C67" opacity="1.000000" stroke="none" 
	d="
M545.500610,500.660614 
	C540.158020,467.529114 530.451355,435.666748 517.316406,404.810944 
	C510.618866,389.077515 504.650574,372.943726 496.684052,357.872955 
	C491.644806,348.339935 483.527771,340.433868 476.922455,331.270325 
	C486.024170,326.063812 495.493317,322.132141 503.859009,316.547516 
	C520.198547,305.639832 531.071899,290.848969 530.046143,270.137512 
	C529.109253,251.220245 518.644897,237.363434 503.697784,226.982117 
	C486.233765,214.852707 466.673065,215.293808 447.030914,219.976273 
	C424.823242,225.270340 404.687592,235.433365 385.548401,247.685364 
	C384.429413,248.401703 383.122620,248.824677 380.579224,249.991653 
	C381.629700,244.737762 382.396088,240.904587 383.495026,237.003296 
	C384.970154,236.001541 386.256012,235.196686 387.231079,234.112350 
	C391.887665,228.933838 396.403931,223.628860 401.073669,218.462463 
	C411.312958,207.134109 421.680939,195.921631 431.875946,184.553848 
	C448.159088,166.397568 464.298462,148.112335 480.587555,129.961426 
	C490.898041,118.472443 501.421082,107.174477 511.757507,95.708542 
	C527.851868,77.855469 543.868713,59.932465 559.918396,42.039085 
	C561.291443,51.735470 562.765869,61.418785 564.019104,71.130630 
	C568.235535,103.805588 572.455078,136.480530 576.521240,169.174393 
	C582.092346,213.968628 587.177979,258.762177 584.653564,304.092194 
	C582.208435,347.998077 579.431335,391.872742 570.793030,435.055664 
	C567.419128,451.922241 562.206726,468.493286 556.723389,484.826874 
	C554.770691,490.643433 549.540100,495.359558 545.500610,500.660614 
z"/>
<path fill="#039392" opacity="1.000000" stroke="none" 
	d="
M559.970825,41.657505 
	C543.868713,59.932465 527.851868,77.855469 511.757507,95.708542 
	C501.421082,107.174477 490.898041,118.472443 480.587555,129.961426 
	C464.298462,148.112335 448.159088,166.397568 431.875946,184.553848 
	C421.680939,195.921631 411.312958,207.134109 401.073669,218.462463 
	C396.403931,223.628860 391.887665,228.933838 387.231079,234.112350 
	C386.256012,235.196686 384.970154,236.001541 383.404510,236.545807 
	C383.382141,223.051071 383.782806,209.945663 384.396606,196.690033 
	C384.370972,195.699341 384.132172,194.858887 383.670349,193.627472 
	C383.299469,191.916748 383.135956,190.598480 383.006073,189.276917 
	C380.137451,160.088211 354.481110,137.671738 325.380737,139.238266 
	C311.228882,140.000107 298.463867,145.412842 287.255737,153.660583 
	C277.677582,160.708878 269.071320,169.077896 260.035156,176.862717 
	C233.351425,153.057693 206.672760,129.246948 179.981796,105.450050 
	C166.694443,93.603439 153.369400,81.799072 140.100327,69.932068 
	C138.005402,68.058502 136.117279,65.953705 134.000641,63.661072 
	C148.146545,64.375641 162.412689,65.646111 176.706818,66.339890 
	C206.476227,67.784798 236.251007,69.581810 266.041168,70.009247 
	C297.340820,70.458359 328.691742,70.224236 359.964996,68.941711 
	C405.616608,67.069534 450.808197,60.687958 495.580475,51.642254 
	C515.801697,47.556793 535.865723,42.676796 555.945862,37.924198 
	C559.493774,37.084465 560.068481,38.451138 559.970825,41.657505 
z"/>
<path fill="#D12638" opacity="1.000000" stroke="none" 
	d="
M260.017242,177.162582 
	C269.071320,169.077896 277.677582,160.708878 287.255737,153.660583 
	C298.463867,145.412842 311.228882,140.000107 325.380737,139.238266 
	C354.481110,137.671738 380.137451,160.088211 383.006073,189.276917 
	C383.135956,190.598480 383.299469,191.916748 383.446045,193.891205 
	C383.691010,195.310684 383.937225,196.075485 384.183472,196.840271 
	C383.782806,209.945663 383.382141,223.051071 383.071991,236.613937 
	C382.396088,240.904587 381.629700,244.737762 380.579224,249.991653 
	C383.122620,248.824677 384.429413,248.401703 385.548401,247.685364 
	C404.687592,235.433365 424.823242,225.270340 447.030914,219.976273 
	C466.673065,215.293808 486.233765,214.852707 503.697784,226.982117 
	C518.644897,237.363434 529.109253,251.220245 530.046143,270.137512 
	C531.071899,290.848969 520.198547,305.639832 503.859009,316.547516 
	C495.493317,322.132141 486.024170,326.063812 476.725250,330.982300 
	C467.716187,333.378296 459.130341,336.096863 450.336060,337.578033 
	C429.726471,341.049133 409.052246,344.193817 388.333191,346.933716 
	C377.978973,348.302948 367.469025,348.494568 356.274597,349.165649 
	C354.996094,349.348114 354.472504,349.583740 353.948944,349.819366 
	C353.512787,349.859009 353.076660,349.898651 352.061035,349.694519 
	C346.958435,349.707001 342.435272,349.963257 337.912109,350.219482 
	C337.510071,350.230835 337.108063,350.242188 336.020447,350.165314 
	C333.879150,350.327545 332.423492,350.578003 330.967804,350.828461 
	C319.298645,350.838837 307.629456,350.849182 295.493164,350.816650 
	C291.594971,350.494385 288.164948,350.006439 284.732697,349.990540 
	C280.794250,349.972260 278.217621,348.390686 276.383148,344.874054 
	C264.107666,321.342468 254.335342,296.855225 248.552063,270.915253 
	C245.188385,255.828049 243.115158,240.492798 244.154526,224.998718 
	C245.304764,207.851898 250.238922,191.814453 260.017242,177.162582 
z"/>
<path fill="#DD6C2B" opacity="1.000000" stroke="none" 
	d="
M338.245239,350.462555 
	C342.435272,349.963257 346.958435,349.707001 351.732758,349.703979 
	C347.515411,350.206635 343.046906,350.456116 338.245239,350.462555 
z"/>
<path fill="#DD6C2B" opacity="1.000000" stroke="none" 
	d="
M331.349121,350.901764 
	C332.423492,350.578003 333.879150,350.327545 335.718842,350.171448 
	C334.645386,350.502228 333.187897,350.738647 331.349121,350.901764 
z"/>
<path fill="#DD6C2B" opacity="1.000000" stroke="none" 
	d="
M354.241760,349.890991 
	C354.472504,349.583740 354.996094,349.348114 355.814941,349.192566 
	C355.585022,349.502625 355.059784,349.732605 354.241760,349.890991 
z"/>
<path fill="#026C67" opacity="1.000000" stroke="none" 
	d="
M384.396606,196.690033 
	C383.937225,196.075485 383.691010,195.310684 383.669098,194.282150 
	C384.132172,194.858887 384.370972,195.699341 384.396606,196.690033 
z"/>
</svg>